<svg xmlns="http://www.w3.org/2000/svg" viewBox="0 0 294.175 142.386" width="588.35" height="284.772"><path fill="#fff" d="M0 0h294.175v142.386H0z"/><path d="M53.599 12.873c8.179-2.943 19.544-2.403 28.56-.576 9.017 1.827 18.365 5.577 25.53 11.54 7.164 5.962 13.908 15.524 17.44 24.25 3.54 8.713 4.641 19.079 3.79 28.074-.86 8.997-3.666 18.237-8.907 25.89-5.241 7.652-14.187 15.29-22.538 20.024-8.359 4.744-18.368 8.258-27.591 8.407-9.222.159-19.702-3.085-27.728-7.508-8.027-4.433-14.993-11.533-20.42-19.043-5.426-7.51-10.874-17.116-12.13-26.018-1.245-8.904 1.163-18.846 4.613-27.427 3.452-8.57 8.83-17.513 16.091-24.036 7.27-6.524 22.325-12.649 27.491-15.114 5.178-2.457 3.437-.778 3.549.347m-21.63 6.228c6.897-5.182 17.983-8.721 27.084-9.247 9.103-.516 19.073 1.717 27.52 6.124 8.458 4.405 17.425 12.95 23.202 20.29 5.779 7.352 9.885 14.95 11.472 23.766 1.587 8.817 1.323 20.357-1.937 29.154-3.258 8.806-10.827 16.996-17.632 23.68-6.805 6.682-14.673 13.863-23.228 16.414-8.546 2.549-19.07.845-28.057-1.137-8.997-1.981-18.868-4.903-25.899-10.773-7.03-5.87-12.403-16.112-16.296-24.445-3.895-8.343-7.554-16.516-7.076-25.582.467-9.075 4.788-20.84 9.92-28.851 5.14-8.013 17.358-16.387 20.919-19.23 3.562-2.834.025 1.308.44 2.21" stroke="#1e1e1e" stroke-width="2" fill="none" stroke-linecap="round"/><path fill="#1e1e1e" d="m46.702 85.616.916-.164q.927-.156 2.206-.4 1.28-.234 2.501-.46 1.221-.225 2.723-.46 1.511-.244 3.122-.492 1.603-.238 3.24-.439 1.629-.2 3.448-.103 1.83.095 3.555.396 1.726.301 3.016.51 1.29.21 2.688.252 1.407.032 2.612-.01 1.207-.033 2.34-.085 1.132-.063 2.606.02 1.474.073 2.663.286 1.198.2 2.3.365 1.101.163 2.906-.071 1.815-.236 2.402-.224.598.02 1.15.227.552.198 1.016.57.464.37.785.872.32.502.458 1.078.149.576.098 1.168-.051.592-.291 1.129-.23.546-.623.992-.395.437-.92.73-.516.292-1.096.401-.581.11-1.167.027-.585-.072-1.116-.343-.53-.262-.95-.68-.42-.417-.685-.956-.263-.53-.342-1.114-.08-.585.034-1.165.112-.59.405-1.105.294-.514.735-.906.44-.403.985-.628.543-.235 1.132-.285.589-.049 1.173.094.575.144 1.073.47.497.316.873.78.365.465.57 1.013.207.557.217 1.151.02.593-.156 1.162-.175.568-.524 1.05-.348.48-.826.828-.479.337-1.05.515l-.563.167-1.764.239q-1.765.229-2.883.168-1.119-.06-2.257-.27-1.138-.209-2.396-.482-1.25-.285-2.328-.351-1.07-.077-2.29-.064-1.229.015-2.732-.054-1.501-.059-2.79-.187-1.299-.127-2.626-.391l-2.808-.538q-1.483-.294-2.71-.42-1.229-.127-2.684.01-1.466.127-3.074.325-1.619.189-3.14.354-1.51.174-2.748.281-1.236.107-2.533.222-1.297.105-2.233.202-.927.085-1.248.098-.322.003-.636-.075-.312-.07-.605-.221-.282-.144-.532-.352-.24-.21-.428-.477-.186-.257-.308-.564-.121-.296-.164-.613-.043-.317-.005-.635.036-.328.147-.626.11-.307.286-.573.186-.268.42-.48.241-.225.524-.375.28-.159.593-.241l.313-.073ZM42.28 49.354l-.186-1.004q-.187-1.004-.484-2.75-.295-1.736-.181-4.174.114-2.437.664-4.711.541-2.263 1.18-3.662.646-1.41 1.716-2.523 1.06-1.122 2.048-1.65.978-.525 2.164-.787 1.185-.261 2.723.217 1.538.478 2.236 1.312.699.834 1.242 2.011.534 1.19.802 2.495.278 1.315.45 2.654.182 1.348.149 3.34-.043 1.994-.636 4.698-.595 2.684-.912 3.918-.329 1.225-.668 2.37-.348 1.158-.935 2.71-.577 1.552-1.18 2.613-.602 1.07-1.628 2.067-1.035.998-2.475 1.394-1.441.387-2.912-.342-1.481-.728-2.137-1.618-.645-.892-1.207-2.36-.562-1.467-.792-2.567-.23-1.109-.399-2.499-.175-1.368-.015-2.5.151-1.12.569-2.358.427-1.238.946-2.176.52-.929 1.735-1.87 1.233-.954 2.447-1.31 1.213-.356 2.92-.345 1.695.003 2.847 1.128 1.151 1.126 1.384 2.174.223 1.05.194 2.406-.028 1.356-.28 2.47-.25 1.134-.534 2.252-.27 1.126-1.02 2.449-.75 1.313-1.9 1.912-1.15.61-2.96.209-1.79-.403-2.552-1.562-.772-1.157-1.004-2.72-.22-1.544-.064-2.857.154-1.322.576-2.752.42-1.44.832-2.575.403-1.124.765-2.253.363-1.119.486-2.296.133-1.178.15-1.796.02-.608.223-1.19.215-.575.604-1.051.38-.476.9-.808.52-.333 1.115-.484.597-.142 1.209-.093.612.048 1.18.294.558.247 1.016.65.46.412.754.947.305.534.417 1.144.122.6.033 1.207-.08.606-.358 1.158-.269.551-.705.984-.436.432-.984.708-.547.276-1.162.36-.604.081-1.206-.04-.611-.118-1.137-.42-.535-.301-.95-.76-.406-.46-.653-1.022-.238-.563-.29-1.171-.043-.62.098-1.214.152-.596.485-1.115.335-.51.807-.897.482-.388 1.06-.597.576-.21 1.189-.232.614-.013 1.204.17.59.183 1.082.54.502.356.853.863.36.496.54 1.077l.18.591-.17 2.466q-.182 2.456-.488 3.477-.306 1.02-.682 2.12l-.81 2.29q-.423 1.197-.649 2.287-.236 1.092-1.476.351-1.238-.72-2.388-.938-1.16-.216-.89-1.504.28-1.29 1.203-.213.921 1.066.543 2.146-.391 1.062-.229 2.19.162 1.12.451 2.362.29 1.242-.774 1.215-1.064-.038-.415-1.054.638-1.025 1.187-2.714.547-1.699.796-2.843.247-1.153.452-2.624.206-1.46.338-2.942.131-1.49.053-2.812-.08-1.332-.373-2.907-.293-1.565-.906-.654-.622.922-1.08 2.528-.458 1.616-.585 3.44-.136 1.824.016 3.469.15 1.634.279 2.656.128 1.022.139 1.323.013.322-.056.634-.059.31-.2.602-.134.28-.343.53-.2.24-.456.436-.257.186-.543.306-.296.13-.613.173-.306.052-.622.024-.317-.028-.613-.129-.306-.1-.572-.276-.265-.166-.488-.398-.213-.233-.371-.505-.16-.28-.25-.581l-.083-.312Zm35.071 6.748-.177-1.308q-.188-1.317-.326-2.71-.139-1.395-.104-3.004.024-1.608.088-2.777.054-1.168.225-2.886.17-1.728.475-3.273.296-1.544.672-2.937.367-1.392 1.019-2.691.65-1.31 1.891-2.052 1.243-.734 2.46-.99 1.227-.256 2.248-.687 1.023-.421 2.565.016 1.533.438 2.225 1.677.691 1.228.895 2.361.203 1.123.356 2.182.145 1.07.239 2.581.083 1.513-.043 3.114-.126 1.602-.338 2.871-.212 1.27-.543 2.849-.332 1.569-.777 2.981-.433 1.421-.984 2.797-.541 1.365-1.006 2.478-.475 1.114-1.05 2.08-.567.964-1.47 1.672-.893.706-2.063 1.006-1.162.288-2.881-.408-1.7-.698-2.427-2.052-.739-1.354-.991-2.4-.25-1.025-.446-2.32-.195-1.296-.39-2.662-.187-1.378-.317-2.712-.14-1.333-.012-2.925.127-1.591.492-3.074.364-1.482.79-2.73.426-1.259.846-2.476.42-1.218.837-2.394.406-1.175 1.014-2.347.6-1.161 1.76-1.904 1.17-.753 2.71-.861 1.547-.119 2.763.514 1.206.634 1.992 1.89.775 1.257 1.15 2.528.363 1.273.529 2.421.165 1.148.234 2.774.067 1.616-.137 2.713-.203 1.107-.584 2.249-.389 1.152-.882 2.208-.482 1.054-.98 2l-.96 1.784q-.461.84-.78 1.165-.328.337-.72.572-.39.245-.825.394-.435.14-.895.172-.46.032-.924-.046-.454-.07-.872-.256-.419-.185-.79-.468-.37-.273-.652-.638-.29-.355-.488-.772-.197-.417-.279-.87-.091-.452-.074-.919.029-.458.16-.9.133-.441.36-.845.24-.396-.071 1.331-.3 1.736-.49.48-.19-1.255-.128-2.434.06-1.19.448-3.694.39-2.495.824-2.937.434-.442.992-.72.557-.287 1.171-.37.613-.093 1.225.026.61.11 1.155.409.535.3.96.758.416.458.665 1.03.249.572.302 1.19.053.619-.088 1.213-.15.605-.472 1.133-.332.53-.815.918-.482.388-1.058.607-.585.221-1.208.245-.612.022-1.212-.16-.589-.172-1.102-.536-.502-.356-.872-.85-.361-.507-.552-1.097-.181-.59-.175-1.217.017-.618.221-1.2.214-.585.592-1.07.388-.486.907-.829.52-.333 1.124-.495.605-.153 1.217-.104.622.047 1.198.281.568.246 1.038.657.46.412.773.945.306.544.429 1.153t.045 1.225q-.078.616-.357 1.168l-.267.561.24 1.542q.238 1.542-.046 3.316-.295 1.776-.614 2.101-.328.337-.72.572-.39.245-.825.394-.435.14-.895.172-.46.032-.913-.038-.455-.08-.883-.264-.419-.185-.79-.468-.37-.273-.652-.638-.29-.355-.488-.772-.197-.417-.279-.87-.091-.452-.074-.919.029-.458.16-.9.133-.441.36-.845.24-.396.107-.186-.133.21.39-.77.512-.987 1.044-1.977.532-.99.89-1.998.348-1.006.354-2.086.006-1.07.18-2.315.185-1.246 1.237-1.076 1.053.17.685 1.179-.378 1.01-.791 2.206-.404 1.195-.77 2.294-.364 1.109-.605 2.312-.24 1.203-.146 2.502.084 1.29.265 2.628.191 1.337.306 2.926.122 1.578-1.21.98-1.33-.586-.882-1.595.449-1.01.854-2.043.403-1.044.763-2.192.349-1.148.65-2.57.291-1.433.438-2.583.137-1.149.174-2.223.037-1.065-.099-2.217-.135-1.152-.254-2.398-.11-1.256 1.158-.247 1.278 1.018.04.892-1.237-.115-1.698.876-.451.99-.816 2.099-.363 1.118-.705 2.396-.342 1.277-.573 3.074-.24 1.799-.245 3.111-.015 1.304.123 2.618.136 1.303.304 2.622.177 1.309.18 1.621.001.313-.069.615-.069.312-.213.584-.144.282-.344.52-.21.24-.458.416-.257.186-.554.307-.288.11-.595.151-.307.042-.614.012-.318-.037-.615-.148-.297-.101-.553-.279-.266-.176-.47-.41-.211-.224-.36-.507-.148-.272-.23-.574l-.08-.302Z"/><path d="M197.843 18.91c7.63-4.99 19.356-7.223 28.452-7.122 9.085.092 17.968 3.098 26.07 7.712 8.101 4.605 17.32 11.945 22.517 19.93 5.199 7.985 7.778 18.917 8.654 27.992.874 9.065.118 17.946-3.396 26.425-3.516 8.468-10.665 18.275-17.675 24.411-7.022 6.128-15.542 10.5-24.43 12.38-8.897 1.89-19.799 1.196-28.92-1.101-9.119-2.288-19.135-6.583-25.807-12.632-6.66-6.041-11.321-14.826-14.217-23.617-2.887-8.802-4.16-19.922-3.12-29.155 1.04-9.243 2.405-18.025 9.377-26.305 6.973-8.27 25.292-19.277 32.469-23.367 7.177-4.08 10.303-2.232 10.57-1.158m1.13-.305c8.767-1.65 20.092-.217 28.67 3.223 8.588 3.43 17.037 10.157 22.849 17.382 5.812 7.226 10.401 16.605 12.033 25.97 1.62 9.368.076 21.212-2.275 30.24-2.35 9.026-5.697 17.25-11.817 23.92-6.122 6.662-16.252 12.938-24.899 16.076-8.647 3.139-17.81 4.036-26.986 2.745-9.177-1.3-20.426-4.934-28.083-10.508-7.668-5.581-14.042-14.204-17.911-22.954-3.86-8.752-5.613-20.22-5.26-29.532.353-9.321 3.036-18.504 7.391-26.36 4.347-7.844 10.949-15.882 18.716-20.748 7.758-4.864 23.375-6.908 27.828-8.45 4.452-1.55-.863-1.457-1.12-.826" stroke="#1e1e1e" stroke-width="2" fill="none" stroke-linecap="round"/><path fill="#1e1e1e" d="m201.6 88.353.916-.165q.928-.156 2.207-.4 1.28-.233 2.5-.459 1.221-.226 2.724-.46 1.51-.244 3.122-.493 1.602-.237 3.24-.438 1.628-.2 3.447-.104 1.83.096 3.556.397 1.726.301 3.015.51 1.29.209 2.688.252 1.407.031 2.613-.01 1.206-.033 2.34-.086 1.131-.062 2.606.021 1.473.073 2.662.285 1.198.202 2.3.365 1.102.164 2.907-.07 1.814-.236 2.401-.225.598.02 1.151.228.552.198 1.016.569.464.371.784.873.32.501.459 1.078.148.575.097 1.167-.05.593-.291 1.13-.229.545-.622.992-.395.437-.92.73-.516.292-1.097.4-.58.11-1.167.028-.585-.073-1.116-.344-.53-.261-.95-.678-.42-.418-.684-.957-.264-.53-.343-1.114-.079-.585.034-1.166.112-.59.406-1.104.293-.514.735-.907.44-.402.984-.627.544-.235 1.132-.285.59-.05 1.174.094.574.144 1.072.47.497.316.873.78.366.465.57 1.012.208.558.217 1.152.02.593-.155 1.161-.176.569-.524 1.05-.349.481-.827.828-.479.338-1.05.516l-.563.167-1.764.239q-1.765.229-2.883.168-1.118-.06-2.257-.27-1.138-.209-2.396-.483-1.25-.285-2.328-.35-1.07-.078-2.29-.064-1.228.015-2.731-.054-1.502-.06-2.79-.187-1.3-.127-2.627-.392l-2.807-.538q-1.483-.294-2.711-.42-1.228-.126-2.683.01-1.466.128-3.074.325-1.62.19-3.141.355-1.51.174-2.747.281-1.237.107-2.533.222-1.298.105-2.234.201-.927.085-1.248.099-.322.003-.636-.076-.312-.069-.605-.22-.281-.144-.532-.353-.24-.21-.428-.476-.186-.258-.308-.564-.12-.297-.164-.614-.043-.317-.005-.635.036-.328.147-.625.11-.308.286-.574.186-.267.42-.48.242-.225.524-.374.281-.16.593-.242l.313-.072Zm-4.422-36.263-.186-1.004q-.186-1.004-.483-2.75-.296-1.736-.182-4.173.114-2.437.664-4.712.542-2.263 1.18-3.661.647-1.41 1.717-2.523 1.059-1.122 2.047-1.65.978-.526 2.164-.787 1.186-.261 2.724.217 1.538.478 2.236 1.311.698.834 1.24 2.012.535 1.19.803 2.495.279 1.315.45 2.654.182 1.347.15 3.34-.044 1.994-.636 4.698-.596 2.684-.913 3.917-.329 1.226-.668 2.371-.348 1.158-.935 2.71-.577 1.552-1.18 2.612-.602 1.07-1.628 2.067-1.035.998-2.475 1.395-1.44.387-2.912-.342-1.481-.728-2.136-1.619-.646-.891-1.208-2.359-.562-1.468-.791-2.567-.231-1.109-.4-2.499-.174-1.369-.015-2.5.151-1.12.57-2.358.427-1.239.946-2.177.52-.928 1.735-1.87 1.233-.953 2.446-1.31 1.213-.355 2.92-.344 1.696.002 2.847 1.128 1.152 1.126 1.384 2.174.223 1.05.195 2.406-.029 1.356-.281 2.47-.25 1.133-.533 2.252-.272 1.126-1.02 2.449-.752 1.312-1.902 1.912-1.148.61-2.958.209-1.79-.404-2.553-1.562-.772-1.157-1.004-2.72-.219-1.545-.064-2.857.154-1.323.576-2.752.421-1.44.832-2.575.403-1.124.765-2.253.363-1.12.487-2.296.133-1.179.15-1.797.019-.608.222-1.19.215-.574.605-1.05.38-.476.9-.809.52-.333 1.115-.484.596-.141 1.208-.093.612.049 1.18.295.558.247 1.017.65.459.411.753.947.305.534.418 1.144.121.6.032 1.207-.08.606-.358 1.158-.268.551-.704.983-.436.433-.984.709-.548.276-1.163.359-.604.082-1.206-.039-.611-.119-1.136-.42-.536-.302-.95-.76-.406-.46-.654-1.022-.238-.563-.29-1.172-.043-.62.098-1.214.152-.595.485-1.115.335-.51.807-.896.482-.388 1.06-.598.577-.21 1.19-.231.613-.013 1.203.17.59.182 1.082.54.502.355.854.863.36.496.54 1.077l.18.591-.17 2.465q-.183 2.457-.489 3.477t-.681 2.12q-.388 1.093-.81 2.29-.424 1.198-.65 2.288-.235 1.091-1.476.351-1.238-.72-2.387-.938-1.16-.217-.89-1.504.28-1.29 1.202-.214.921 1.066.543 2.147-.391 1.062-.228 2.19.161 1.119.45 2.361.29 1.243-.774 1.215-1.064-.037-.415-1.054.639-1.025 1.187-2.713.547-1.7.796-2.843.247-1.154.452-2.624.206-1.461.338-2.942.132-1.491.054-2.813-.08-1.331-.374-2.906-.292-1.565-.906-.654-.622.921-1.08 2.527-.458 1.616-.584 3.44-.137 1.825.015 3.47.151 1.634.28 2.656.127 1.022.138 1.323.013.321-.056.633-.058.311-.2.603-.134.28-.342.53-.2.24-.456.435-.258.187-.544.306-.295.13-.612.174-.306.051-.623.024-.316-.028-.613-.13-.306-.1-.572-.275-.264-.166-.488-.398-.213-.234-.37-.505-.16-.281-.251-.582l-.083-.312Zm35.072 6.749-.177-1.308q-.189-1.317-.327-2.711t-.104-3.003q.025-1.608.088-2.777.054-1.168.225-2.886.17-1.729.476-3.274.295-1.543.672-2.936.366-1.392 1.018-2.691.65-1.31 1.892-2.053 1.242-.733 2.46-.989 1.226-.256 2.247-.687 1.023-.421 2.566.016 1.532.438 2.225 1.676.69 1.229.894 2.362.203 1.123.356 2.182.145 1.07.239 2.58.083 1.513-.043 3.115-.126 1.601-.338 2.871-.211 1.27-.542 2.849-.333 1.568-.778 2.98-.433 1.422-.983 2.798-.542 1.365-1.007 2.478-.475 1.113-1.05 2.08-.566.964-1.47 1.671-.893.707-2.063 1.006-1.162.289-2.88-.407-1.7-.698-2.428-2.053-.738-1.353-.99-2.399-.25-1.025-.446-2.32-.196-1.296-.39-2.663-.187-1.377-.318-2.712-.14-1.333-.012-2.924.128-1.592.492-3.074.365-1.482.79-2.73.426-1.26.846-2.477.42-1.217.837-2.394.406-1.175 1.014-2.347.6-1.16 1.76-1.903 1.17-.754 2.71-.861 1.548-.12 2.764.514 1.206.633 1.991 1.89.776 1.257 1.15 2.528.364 1.273.53 2.42.165 1.15.233 2.775.068 1.615-.137 2.713-.203 1.107-.583 2.248-.39 1.153-.882 2.208-.483 1.055-.98 2-.508.947-.96 1.785-.462.84-.78 1.165-.329.337-.72.572-.391.244-.825.394-.435.14-.895.172-.46.032-.925-.047-.453-.07-.872-.255-.419-.186-.79-.468-.37-.273-.651-.639-.29-.354-.488-.771-.198-.417-.28-.87-.091-.452-.074-.919.03-.458.161-.9.132-.441.36-.846.24-.395-.072 1.332-.3 1.736-.49.48t-.128-2.435q.061-1.189.449-3.693.389-2.495.823-2.937.435-.443.993-.72.556-.287 1.17-.37.614-.093 1.225.026.61.109 1.155.408.536.301.96.758.416.459.665 1.03.249.572.302 1.19.054.62-.088 1.214-.15.605-.472 1.133-.332.53-.814.918-.483.388-1.058.607-.586.22-1.209.244-.612.023-1.212-.158-.588-.173-1.102-.538-.502-.355-.872-.85-.36-.506-.552-1.096-.18-.591-.175-1.218.018-.618.221-1.2.214-.584.592-1.07.388-.486.907-.828.52-.333 1.124-.496.605-.152 1.217-.104.622.047 1.199.282.568.246 1.037.657.46.412.774.944.305.544.428 1.153.123.61.045 1.226t-.356 1.168l-.268.56.24 1.543q.238 1.542-.046 3.316-.295 1.775-.614 2.101-.328.337-.72.572-.39.244-.824.394-.435.14-.895.172-.46.032-.914-.038-.454-.08-.883-.264-.419-.186-.79-.468-.37-.273-.651-.639-.29-.354-.488-.771-.198-.417-.28-.87-.091-.452-.074-.919.03-.458.161-.9.132-.441.36-.846.24-.395.106-.186-.133.21.39-.769.512-.988 1.044-1.978t.89-1.997q.349-1.006.354-2.087.006-1.07.18-2.315.185-1.246 1.238-1.075 1.052.17.684 1.178-.378 1.01-.791 2.207-.403 1.194-.77 2.293-.364 1.11-.605 2.313-.24 1.203-.145 2.502.084 1.29.265 2.628.19 1.336.305 2.925.123 1.578-1.21.982-1.33-.587-.882-1.597.45-1.009.854-2.043.404-1.043.763-2.192.35-1.147.651-2.57.29-1.432.438-2.582.137-1.15.173-2.224.037-1.064-.098-2.217-.136-1.152-.254-2.397-.11-1.257 1.157-.248 1.278 1.018.04.893-1.237-.115-1.698.876-.451.99-.816 2.098-.363 1.119-.705 2.396-.341 1.278-.572 3.075-.241 1.799-.245 3.111-.015 1.304.122 2.617.136 1.304.305 2.623.177 1.308.179 1.62.002.313-.069.615-.068.312-.213.584-.144.282-.343.521-.21.24-.459.415-.257.187-.554.307-.288.11-.595.152-.307.041-.614.012-.318-.038-.615-.149-.296-.1-.552-.278-.266-.176-.47-.41-.212-.224-.361-.507-.148-.273-.23-.574l-.08-.302Z"/><path fill="#846358" d="m74.795 26.706-.498-.618q-.486-.61-1.163-1.962-.676-1.341-.98-2.47-.314-1.119-.414-2.236-.091-1.118.271-2.317.364-1.19 1.252-2.157.898-.97 2.292-1.562 1.412-.595 2.837-.879 1.424-.293 2.741-.4 1.318-.109 2.379.05 1.06.16 2.164.707 1.103.547 2.063 1.749.97 1.2 1.264 2.331.286 1.142.198 2.577-.089 1.435-.707 2.679-.619 1.244-1.695 2.318-1.084 1.085-2.275 1.751-1.182.665-2.41.912-1.228.247-2.44.007-1.214-.24-2.445-1.132-1.21-.896-1.955-2.37-.755-1.471-1.07-2.69-.306-1.21-.207-2.717.108-1.508 1.291-2.687 1.173-1.178 2.836-1.413 1.654-.234 3.103.407 1.448.632 2.544 1.876 1.086 1.235 1.593 2.448.507 1.213.72 2.264.225 1.06-.018 2.545-.236 1.465-.776 2.396-.541.921-1.643 1.878-1.102.956-2.768 1.393-1.666.438-2.763.163-1.079-.288-1.89-.986-.802-.709-1.323-2.101-.512-1.394-.548-2.48-.034-1.074.203-2.156.238-1.072.787-2.014.537-.95 2.196-2.184 1.669-1.245 3.378-1.81 1.71-.564 3.514-.808 1.793-.243 2.892-.18 1.09.075 2.189.37 1.1.295 2.942 1.307 1.841 1.002 3.26 2.314 1.419 1.311 2.566 2.78 1.136 1.461 1.758 2.628.621 1.158 1.287 2.793.664 1.626 1.037 3.038.371 1.403.513 2.746.141 1.344-.502 3.076-.652 1.743-2.175 2.797-1.532 1.055-3.608 1.073-2.087.02-3.9-.925-1.804-.957-2.97-2.11-1.164-1.145-1.851-2.273-.696-1.116-.888-2.978-.193-1.87.359-3.015.551-1.144 1.548-1.683 1.008-.53 2.276-.63 1.28-.093 2.687.24 1.407.335 3.052 1.152 1.646.827 2.527 1.525.89.686 1.716 2.018.815 1.322.542 3.256-.271 1.944-1.606 2.892t-2.57 1.216q-1.226.267-3.15.063-1.924-.194-3.529-1.016-1.614-.82-2.637-1.964-1.034-1.152-1.61-2.345-.574-1.194-.885-2.595-.31-1.39-.347-3.01-.048-1.619 1.084-3.023 1.133-1.395 2.186-1.669 1.061-.285 2.325-.123 1.273.161 2.239.737.977.584 1.755 1.639.779 1.055.766 2.227-.011 1.183-.458 2.282-.445 1.11-1.931 1.836-1.476.725-2.718.943-1.232.218-2.87.268-1.638.05-3.025-.206-1.377-.258-2.454-.829-1.076-.57-1.812-1.682-.747-1.12-.397-3.084.338-1.974 1.848-3.046 1.51-1.072 2.758-1.544 1.248-.471 2.37-.755 1.121-.293 1.14-.295.02-.003.47-.034.45-.03.895.05.445.082.853.259.409.187.769.46.36.275.64.63.27.358.455.756.197.408.277.851.081.453.061.9-.03.448-.163.88-.134.432-.364.816-.23.394-.55.71-.319.326-.701.56-.382.233-.819.362-.425.139-1.573.304-1.14.154-.754 1.586.384 1.421 1.607 2.406 1.222.975 2.652 1.921l2.625 1.724q1.187.798 2.183 1.44.995.642 1.893 1.237.888.597 2.277 1.62 1.39 1.022 2.67 2.504 1.28 1.481 2.04 2.993.76 1.512 1.033 2.706.281 1.183.467 3.156.197 1.972-.242 4.17-.438 2.209-.968 3.663-.518 1.463-1.04 2.603-.512 1.14-.932 1.983-.411.843-.626 1.195-.224.353-.52.635-.293.292-.648.502-.355.21-.753.324-.388.113-.799.138-.411.016-.815-.06-.404-.077-.782-.258-.376-.171-.694-.431-.328-.259-.574-.588-.245-.32-.418-.7-.163-.382-.227-.787-.065-.405-.041-.822.035-.409.154-.798.129-.391.55 1.378.421 1.77-.197.855-.62-.926-.786-2.376-.166-1.451-.147-3.32.02-1.87.29-3.753.27-1.884.434-3.349.167-1.455.305-2.746.127-1.298.221-2.391.083-1.101.163-3.12.069-2.028.011-3.867-.058-1.848-.196-3.242-.127-1.386-.33-2.59-.204-1.203.705-.448.91.755-.027 1.285-.938.53.293 1.646 1.242 1.123 1.914 1.99.673.868 1.335 1.737.664.88 1.369 1.833.704.954 1.66 2.722.954 1.758 1.62 3.02.654 1.254 1.366 2.64.713 1.388 1.09 2.386.379 1.008.669 2.18.3 1.18.32 1.249.02.068.032.46.011.381-.068.765-.08.375-.244.73-.166.345-.418.642-.241.305-.554.529-.312.234-.665.382-.363.15-.748.213-.375.06-.763.032-.388-.038-.758-.16-.36-.122-.69-.33-.331-.207-.592-.495-.27-.276-.467-.613-.187-.338-.297-.706-.102-.38-.36-1.839-.25-1.47-.688-2.924-.44-1.464-1.095-3.464-.644-2.002-.998-3.125-.355-1.132-.698-2.176-.353-1.042-.667-2.09-.314-1.056-.768-2.842-.455-1.795-.66-3.09-.216-1.292.695-3.211.9-1.928 2.695-2.454 1.786-.524 3.73-.03 1.932.484 3.342 1.434 1.4.95 2.342 1.721.932.772 1.928 1.94.996 1.166 2.027 2.6 1.032 1.435 1.59 2.5.557 1.055.922 2.267.368 1.222.429 2.344.06 1.121-.375 2.15-.428 1.016-2.426 1.76-1.988.744-3.558.109-1.56-.647-2.512-1.265-.961-.616-2.31-1.927-1.347-1.311-2.365-2.415-1.016-1.093-1.87-2.118-.857-1.034-1.563-1.998-.704-.955-1.272-1.867-.567-.912-1.34-2.745-.784-1.841-1.15-3.194-.363-1.344-.427-2.415-.054-1.072.52-2.866.565-1.791 1.915-2.852 1.341-1.05 2.501-1.429 1.17-.37 2.536-.575 1.366-.195 2.829-.05 1.472.144 2.994 1.098 1.53.944 2.22 2.01.69 1.078 1.027 2.445.338 1.377.154 2.926-.175 1.537-.88 2.601-.704 1.054-1.99 1.985-1.288.931-3.077 1.204-1.788.282-2.996-.069-1.207-.34-2.849-1.511-1.632-1.172-2.492-2.307-.861-1.145-1.669-2.488-.799-1.355-1.231-2.538-.433-1.183-.191-3.274.234-2.07 1.091-2.893.868-.824 2.228-1.139 1.371-.307 3.072-.042 1.71.263 2.961.78 1.25.516 2.257 1.016.998.51 1.705 1.04.709.54.976.878.27.347.445.747.185.398.264.832.079.433.056.86-.032.438-.157.859-.134.422-.356.795-.232.374-.543.689-.302.303-.684.536-.373.223-.79.35-.415.137-.857.156-.43.028-.864-.045-.435-.082-.832-.26-.398-.179-.738-.455-.349-.266 1.658.098 2.009.374.38.494-1.619.118-3.043-.487-1.424-.604-2.447-1.232-1.022-.619-2.376-1.525-1.344-.908-2.387-1.827-1.041-.908-1.978-1.79-.94-.903-1.756-1.791-.828-.897-1.51-.946-.685-.059-1.102-.235-.426-.164-.796-.437-.368-.263-.659-.617-.288-.344-.495-.75-.196-.408-.296-.848-.102-.45-.093-.906.01-.455.131-.896.124-.43.342-.833.22-.393.537-.729.308-.334.687-.587.381-.243.805-.392.434-.15.881-.2.459-.042.912.028.442.061 1.593.955 1.151.904 1.985 1.619.832.704 1.494 1.27.66.557.978.888.325.319.56.71.235.393.364.83.13.436.162.896.02.451-.06.896-.08.455-.277.865-.185.419-.47.78-.285.351-.642.622-.365.281-.784.47-.408.186-.862.267-.453.082-.9.052-.46-.04-.892-.172-.442-.132-.826-.363-.386-.24-1.493-.888-1.106-.647-2.129-1.417-1.011-.761-1.975-1.468-.953-.709.98-1.627 1.935-.917 2.09-2.533.155-1.615 1.095-1.006.939.6 2.33 1.188 1.39.58 2.573 1.186 1.182.607 2.399 1.25 1.216.632 2.395 1.29 1.187.647 2.172 1.29.987.654 1.993 1.527 1.008.882 1.934 1.685.927.813 2.156 1.767 1.23.964 2.284 1.962 1.065 1.006 2.162 2.33 1.11 1.334 1.815 2.45.698 1.126 1.3 2.225.594 1.1 1.377 2.266.795 1.174 1.6 2.346.815 1.182 1.35 2.159.535.967.961 2.1.435 1.122.76 2.551.323 1.42.502 2.596.18 1.177.325 2.247.146 1.08.215 2.19.06 1.113-.047 2.187-.118 1.065-.447 2.361-.34 1.297-1.078 2.174-.74.867-2.792.994-2.053.116-2.863-.571-.82-.697-1.441-1.854-.631-1.156-1.009-2.305-.379-1.16-.894-2.806-.515-1.645-.778-2.84-.262-1.187-.617-2.693-.355-1.505-.682-2.874-.318-1.38.897-.606 1.224.763 2.375.547 1.151-.217.35 1.163-.813 1.382-1.553 2.773-.74 1.392-1.53 2.862-.79 1.469-1.309 2.407-.51.927-1.548 2.208-1.038 1.27-2.959 1.4-1.93.13-2.847-.534-.918-.673-1.519-1.752-.591-1.09-1.01-2.396-.41-1.317-.604-2.37-.203-1.053-.397-2.338-.193-1.276-.28-2.142-.088-.876-.035-1.307.051-.441.207-.856.156-.414.4-.77.253-.368.576-.664.335-.287.72-.5.386-.204.815-.313.43-.108.864-.107.444 0 .871.104.428.104.818.303.39.2.722.488.333.298.584.658.25.36.407.772.156.403.215.839.049.437-.239 2.04-.299 1.595-.66 3.097-.362 1.502-.637 2.68-.274 1.177-.508 2.58-.235 1.395-.385 2.525-.138 1.14-.247 2.274-.099 1.134-1.495-.312-1.388-1.457-2.481-1.48-1.093-.024-.155-1.07.948-1.046 1.783-1.957.825-.918 2.05-2.305 1.225-1.387 2.219-2.319.982-.94 1.937-1.564.957-.614 2.405-.87 1.449-.257 2.768.17 1.308.418 2.335 1.742 1.037 1.323 1.52 2.812.496 1.497.802 3.383.306 1.886.478 2.932.163 1.058.289 2.06.125 1.002.112 1.428-.004.414-.12.833-.115.41-.317.78-.212.372-.503.684-.291.312-.643.54-.353.23-.757.376-.404.145-.823.182-.429.038-.851-.026-.411-.056-.808-.224-.394-.158-.74-.404-.348-.256-.614-.583-.275-.316-.469-.704-.182-.379-.28-.8-.086-.411-.268-1.76-.183-1.347-.347-2.485-.164-1.138-.222-2.311-.068-1.172.21-2.33.267-1.156.101-.891-.175.276-.029-.137.138-.403.37-.767.235-.355.549-.65.313-.294.688-.506.375-.213.793-.33.408-.115.84-.124.432-.018.849.077.426.094.804.275.389.19.72.468.33.278.589.626.247.34.413.742.165.401.233.826.067.425.023.844-.043.43-.075 1.978-.043 1.55-.528 3.11-.485 1.558-1.102 2.893-.615 1.345-1.312 2.458-.705 1.125-1.935 2.25t-2.84 1.606q-1.622.472-2.82.19-1.2-.292-2.4-1.472-1.207-1.168-1.835-2.375-.626-1.197-1.045-2.351-.409-1.156-.658-2.403-.25-1.248-.233-2.764.017-1.516.33-2.113.312-.598.611-.92.299-.334.668-.586.371-.242.784-.398.422-.159.86-.208.448-.04.89.011.431.063.847.228.415.156.784.42.357.253.654.587.288.334.493.73.205.396.305.837.098.43.098.874-.01.446-.124.875-.103.428-.323.82-.209.392.114-1.024.322-1.426.679.17.356 1.587.572 3.031.206 1.446.32 2.662.112 1.205.142 3.21.029 2.004-.078 3.078-.108 1.064-.276 2.287-.167 1.224-.2 2.328-.02 1.113-.096 2.344-.065 1.23-.157 2.494-.081 1.262-.218 2.562-.147 1.302-.33 2.558-.192 1.267-.417 2.357-.228 1.08-.494 2.317-.268 1.227-.38 2.332-.103 1.104-.16 2.918-.048 1.813-.127 2.419-.07.605-.328 1.154-.259.55-.684.991-.424.441-.972.717-.537.285-1.14.376-.603.092-1.203-.018-.61-.1-1.143-.39-.534-.292-.948-.74-.414-.449-.67-1-.248-.561-.31-1.168-.062-.607.08-1.202.132-.593.455-1.11.322-.529.784-.914.473-.387 1.037-.615.576-.22 1.189-.242.601-.03 1.19.142.588.173 1.089.519.5.345.87.83.359.497.549 1.076.189.58.18 1.187.003.615-.202 1.188-.205.573-.574 1.056-.378.485-.887.827-.51.331-1.094.491-.593.161-1.196.111-.61-.038-1.176-.264-.567-.236-1.023-.629-.468-.4-.773-.934-.313-.523-.434-1.122l-.131-.598.084-2.282q.083-2.292.22-3.44.14-1.14.348-2.278.21-1.138.512-2.33.303-1.191.535-2.534.232-1.344.367-2.432.137-1.078.226-2.28.1-1.205.187-2.427.078-1.212.147-2.341.068-1.14.266-2.357.187-1.227.37-2.341.18-1.124.127-2.409-.042-1.286-.26-2.447t-.43-2.425q-.21-1.263-.454-2.39-.235-1.139-.077-3.027.168-1.89.467-2.213.299-.333.668-.585.371-.242.784-.398.422-.159.86-.208.448-.04.89.011.431.063.847.228.415.156.784.42.357.253.654.587.288.334.493.73.205.396.305.837.098.43.098.874-.01.446-.124.875-.103.428-.323.82-.209.392.137.335.345-.056.48 1.086.123 1.134.78-.126.655-1.27 1.087-2.852.442-1.583.424-2.68-.019-1.108.127-1.521.138-.403.37-.767.235-.355.549-.65.313-.294.688-.506.375-.213.783-.328.418-.117.85-.126.432-.018.849.077.426.094.804.275.389.19.72.468.33.278.589.626.247.34.413.742.165.401.233.826.067.425.023.844-.043.43-.08 1.272-.039.833.104 1.964.153 1.13.376 2.624.22 1.483.208 1.909-.003.424-.118.843-.116.41-.318.78-.212.372-.503.684-.281.31-.643.54-.353.23-.757.376-.404.145-.823.182-.429.038-.841-.028-.421-.054-.818-.222-.394-.158-.74-.404-.348-.256-.614-.583-.275-.316-.469-.704-.182-.379-.278-.79-.088-.421-.087-.563.001-.141-.133-1.284-.125-1.143-.371-2.593-.237-1.452.219-2.855.465-1.406-.374-.747-.848.67-1.976 2.023-1.138 1.365-1.924 2.41-.796 1.057-1.689 2.065-.904 1-2.025 1.89-1.122.878-2.25.89-1.13 0-2.246-.857-1.114-.849-1.505-2.027-.392-1.178-.234-2.47.17-1.285.34-2.479.172-1.194.407-2.668.242-1.486.588-3.632.345-2.146.687-3.645.353-1.491.406-1.922.051-.441.207-.856.156-.414.4-.77.253-.368.576-.664.325-.286.72-.5.386-.204.815-.313.42-.107.864-.107t.871.104q.428.104.818.303.39.2.722.488.333.298.584.658.25.36.407.772.156.403.215.839l.13 1.183q.07.747.248 1.985.168 1.238-.088 2.333-.265 1.095-1.344.807-1.088-.287-.507-1.364.58-1.078 1.367-2.648.778-1.558 1.528-3.022.75-1.464 1.508-2.656.755-1.202 1.835-2.095 1.08-.893 2.859-.8 1.767.083 2.687 1.36.93 1.278 1.166 2.507.227 1.23.497 2.405.26 1.176.765 2.964.503 1.779 1.028 3.272.524 1.483 1.046 2.734.514 1.263-.988.901-1.502-.362-2.715.59-1.225.942-1.045-.263.179-1.215-.002-2.623-.179-1.399-.44-2.887-.262-1.478-.628-2.62-.368-1.15-.93-2.094-.551-.944-1.25-1.93-.697-.975-1.304-1.882-.615-.895-1.22-2.004-.604-1.109-1.25-2.152-.635-1.044-1.336-1.898-.701-.853-1.823-1.832-1.12-.978-2.333-1.884-1.203-.907-2.005-1.615-.812-.708-1.862-1.605-1.049-.887-2.06-1.497-1-.612-2.16-1.201-1.17-.589-2.318-1.17-1.149-.581-2.189-1.036-1.04-.454-2.085-.939-1.053-.473-1.976-1.104-.913-.634-1.91-1.518-.99-.895-1.642-2.36-.643-1.468-.36-2.586.274-1.107 1.289-1.81 1.006-.69 2.672-.755 1.667-.064 2.745.598 1.09.67 1.956 1.33.867.659 1.93 1.433 1.064.775 2.062 1.366 1.008.59 1.326.92.325.32.56.712.235.392.364.828.13.437.162.897.02.451-.06.896-.08.455-.277.865-.185.419-.47.78-.285.351-.642.622-.365.281-.784.47-.408.186-.862.267-.453.082-.9.052-.46-.04-.892-.172-.442-.132-.826-.363-.386-.24-.946-.73-.57-.478-1.549-1.374-.978-.887-1.807-1.794-.82-.908.256-.126 1.084.782.667.606-.426-.164-.796-.437-.368-.263-.659-.617-.288-.344-.495-.75-.196-.408-.296-.848-.102-.45-.093-.906.01-.455.133-.886.122-.44.34-.843.22-.393.537-.729.308-.334.689-.577.38-.253.803-.402.434-.15.881-.2.459-.042.912.028.442.061.52-.03.08-.091 1.201.221 1.122.312 2.086 1.02.962.697 1.741 1.53.789.832 1.59 1.682.803.86 1.725 1.714.925.864 2.035 1.611 1.122.757 1.673 1.701.562.943 2.692 1.25 2.13.307 2.398.645.27.347.445.747.185.398.264.832.079.433.056.86-.032.438-.157.859-.134.422-.356.795-.232.374-.543.689-.302.303-.684.536-.373.223-.79.35-.415.137-.857.156-.43.028-.864-.045-.435-.082-.832-.26-.398-.179-.738-.455-.349-.266-.929-.601-.569-.327-1.905-.883-1.327-.557-.565-1.558.764-.991 1.343.151.58 1.153 1.773 1.92 1.184.768-.407.792-1.581.022-1.41 1.512.173 1.5.604 2.744.44 1.242 1.42 2.735.98 1.502 1.709 2.341.73.84 1.655 1.714.936.882 2.55 2.591 1.613 1.7.928 2.68-.686.97-1.103-.325-.418-1.296-1.08-2.316-.664-1.02-2-2.313-1.345-1.291-2.401-2.833-1.056-1.543-.824-.272.223 1.271.714 2.96.48 1.692.868 2.76l.787 2.163q.403 1.116 1.117 3.108.725 2.001 1.29 3.943.576 1.94.77 3.448.194 1.508.207 1.9.011.381-.068.765-.08.375-.244.73-.166.345-.418.642-.241.305-.554.529-.312.234-.665.382-.363.15-.748.213-.375.06-.763.032-.388-.038-.758-.16-.36-.122-.69-.33-.331-.207-.592-.495-.27-.276-.467-.613-.187-.338-.297-.706-.102-.38-.146-.778-.034-.399-.261-1.559-.228-1.16-.742-2.352-.504-1.183-1.111-2.24-.598-1.06-1.627-2.404-1.02-1.346-2.43-3.042-1.41-1.696-2.14-2.536l-1.518-1.752q-.79-.912-1.448-1.822-.66-.92-1.244-2.708-.597-1.796-.251-3.195.345-1.399 1.305-2.356.96-.958 1.95-1.546.99-.598 2.013-1.01 1.025-.41 2.249-.536 1.223-.135 2.763.585 1.542.73 2.024 1.684.481.944.635 2.225.153 1.28.226 2.492.072 1.201.127 3.1.047 1.912.012 3.965-.045 2.055-.115 3.174-.06 1.119-.152 2.23-.092 1.113-.175 2.366-.092 1.253-.14 2.693-.047 1.44-.01 4.027.037 2.579-.382 3.806-.43 1.219.045 3.021.475 1.793.26 2.145-.224.353-.52.635-.293.292-.648.502-.355.21-.753.324-.388.113-.799.138-.411.016-.815-.06-.404-.077-.782-.258-.376-.171-.694-.431-.328-.259-.574-.588-.245-.32-.418-.7-.163-.382-.227-.787-.065-.405-.04-.812.034-.419.153-.808.129-.391.499-1.016.368-.635.976-1.808.618-1.173 1.046-2.19.416-1.025.73-2.359.302-1.343.2-2.62-.092-1.28-.384-2.39-.292-1.111-.844-2.056-.561-.943-1.338-1.686-.778-.752-2.241-1.725-1.465-.982-2.439-1.536-.974-.565-2.297-1.243-1.313-.68-3.027-1.71-1.705-1.04-3.287-2.219-1.573-1.18-3.343-2.999-1.761-1.83-2.307-3.552-.555-1.711-.452-3.188.104-1.468.877-2.844.775-1.356 1.811-2.122 1.028-.755 2.177-1.213 1.148-.468 2.891-.785 1.755-.308 2.205-.339.45-.03.894.05.444.072.853.259t.769.46q.36.275.64.63.27.358.455.756.187.41.277.851.081.453.061.9-.03.448-.163.88-.134.432-.364.816-.23.394-.55.71-.32.316-.701.56-.382.233-.819.362-.425.139-.839.215-.403.075-1.372-.45-.97-.525-.779-1.65.2-1.138 1.68-1.388 1.479-.251.906.957-.575 1.198.195 2.486.769 1.278 1.837.67 1.068-.61 1.509.562.44 1.162 1.634 1.485 1.194.322.282 1.414-.913 1.083-1.954.699-1.031-.385-.223-1.645.807-1.27 1.902-.56 1.095.71.782-.338-.313-1.048-1.033-2.413-.71-1.368-1.538-2.416-.83-1.058-1.696-1.87-.867-.81-2.167-1.472-1.302-.671-2.37-.658-1.066.023-2.102.274-1.047.243-2.112.65-1.067.396-2.401-.069-1.336-.475-.662-1.384.676-.898 1.12-2.17.454-1.262.322-.154-.133 1.108.719.316.843-.78-.418-.7-1.27.091-2.374.654-1.106.554-.878 1.714.226 1.15.649 1.81.422.658.57.931.159.281.24.583.081.302.083.614.002.313-.068.615-.069.312-.212.594-.134.28-.343.52-.2.24-.459.416-.257.186-.544.306-.297.11-.603.162-.308.042-.616.003-.316-.028-.614-.14-.296-.1-.552-.278-.266-.175-.478-.4l-.213-.233Z"/><path fill="#846358" d="m110.025 59.504-.403-.814q-.414-.822-.897-2.007-.494-1.185-.34-2.356.145-1.17 1.248-1.965 1.103-.796 2.744-.16 1.66.643 2.264 1.893.605 1.26.835 2.44.23 1.18-.195 3.185-.434 2.007-1.38 3.144-.925 1.144-2.325 1.616-1.389.471-2.975-.364-1.587-.834-1.973-1.902-.386-1.058.081-3.2.457-2.14 2.404-2.889 1.936-.756 2.466-.868.53-.112 1.073-.055.544.068 1.04.304.496.235.89.616.405.379.652.86.258.49.341 1.034.081.523-.006 1.07-.099.538-.357 1.017-.257.489-.661.857-.403.377-.897.605-.504.23-1.041.283-.548.054-1.079-.066-.532-.13-1.004-.41-.463-.29-.812-.707-.36-.425-.56-.933-.19-.51-.223-1.05-.023-.541.126-1.076.151-.525.464-.971.312-.456.752-.788.44-.322.962-.494.522-.171 1.056-.173.546.007 1.065.189.52.182.958.516.43.335.733.789.303.453.446.989.14.516.114 1.064-.038.54-.24 1.052-.214.513-.572.925-.358.412-.824.697l-.477.276-1.493.233q-1.513.225-.507-1.062.996-1.295-.533-1.633-1.538-.327-1.517-1.51.022-1.184 1.066-.922 1.034.254 2.194-.347 1.168-.612 1.487.253.327.854.407 1.145.089.281.097.563.02.3-.042.59-.051.29-.176.56-.125.268-.306.495-.192.228-.43.411-.227.182-.503.3-.267.117-.563.167-.276.048-.572.027-.295-.02-.58-.113-.285-.092-.537-.24-.244-.159-.454-.372-.21-.214-.356-.467l-.155-.251Z"/></svg>
